<svg xmlns="http://www.w3.org/2000/svg" xmlns:xlink="http://www.w3.org/1999/xlink" x="0px" y="0px" viewBox="0 0 1000 1000" xml:space="preserve"><metadata> Svg Vector Icons : http://www.onlinewebfonts.com/icon </metadata><g><path d="M497.8,693.4l63.7-63.7L478,546.1l-63.7,63.7v30.8H467v52.7H497.8z M739.5,297.8c-5.9-5.9-11.9-5.7-18.1,0.5L529.1,490.7c-6.2,6.2-6.4,12.3-0.5,18.1c5.9,5.9,11.9,5.7,18.1-0.5L739,316C745.2,309.8,745.4,303.7,739.5,297.8z M783.5,624.1v104.4c0,43.6-15.5,80.8-46.4,111.8s-68.2,46.4-111.8,46.4h-457c-43.6,0-80.8-15.5-111.8-46.4S10,772.1,10,728.5v-457c0-43.6,15.5-80.8,46.4-111.8c30.9-30.9,68.2-46.4,111.8-46.4h457c23.1,0,44.5,4.6,64.3,13.7c5.5,2.6,8.8,6.8,9.9,12.6c1.1,6.2-0.6,11.5-4.9,15.9l-26.9,26.9c-5.1,5.1-11,6.6-17.6,4.4c-8.4-2.2-16.7-3.3-24.7-3.3h-457c-24.2,0-44.9,8.6-62.1,25.8c-17.2,17.2-25.8,37.9-25.8,62.1v457c0,24.2,8.6,44.9,25.8,62.1c17.2,17.2,37.9,25.8,62.1,25.8h457c24.2,0,44.9-8.6,62.1-25.8c17.2-17.2,25.8-37.9,25.8-62.1v-69.2c0-4.8,1.6-8.8,4.9-12.1l35.2-35.2c5.5-5.5,11.9-6.8,19.2-3.8C779.8,611.1,783.5,616.5,783.5,624.1L783.5,624.1z M730.7,218.7L888.9,377L519.8,746.1H361.6V587.9L730.7,218.7z M974.6,291.3l-50.5,50.5L765.9,183.6l50.5-50.5c10.3-10.3,22.7-15.4,37.4-15.4s27.1,5.1,37.4,15.4l83.5,83.5c10.3,10.3,15.4,22.7,15.4,37.4C990,268.6,984.9,281,974.6,291.3L974.6,291.3z"></path></g></svg>